<svg width="276" height="163" viewBox="0 0 276 163" fill="none" xmlns="http://www.w3.org/2000/svg">
<rect x="0.5" y="103.5" width="275" height="59" rx="4.5" stroke="#FF5520"/>
<path d="M94.1884 137.504C94.8444 137.504 95.5404 137.432 96.2764 137.288C97.0284 137.144 97.7004 136.952 98.2924 136.712V139.28C97.4124 139.632 96.6204 139.872 95.9164 140C95.2284 140.144 94.5084 140.216 93.7564 140.216C91.3724 140.216 89.7084 139.624 88.7644 138.44C87.8204 137.24 87.3484 135.24 87.3484 132.44C87.3484 129.768 87.9084 127.816 89.0284 126.584C90.1484 125.336 91.9484 124.712 94.4284 124.712C95.1644 124.712 95.8204 124.728 96.3964 124.76C96.9724 124.792 97.4924 124.848 97.9564 124.928V127.448C97.3484 127.4 96.7564 127.368 96.1804 127.352C95.6204 127.32 95.0364 127.304 94.4284 127.304C92.8124 127.304 91.7164 127.68 91.1404 128.432C90.5804 129.184 90.3004 130.52 90.3004 132.44C90.3004 134.36 90.5564 135.688 91.0684 136.424C91.5964 137.144 92.6364 137.504 94.1884 137.504ZM110.957 134.048C110.957 136.288 110.525 137.88 109.661 138.824C108.813 139.752 107.357 140.216 105.293 140.216C103.197 140.216 101.725 139.76 100.877 138.848C100.029 137.92 99.6051 136.32 99.6051 134.048C99.6051 131.824 100.037 130.248 100.901 129.32C101.765 128.376 103.229 127.904 105.293 127.904C107.373 127.904 108.837 128.368 109.685 129.296C110.533 130.208 110.957 131.792 110.957 134.048ZM102.389 134.024C102.389 135.496 102.573 136.464 102.941 136.928C103.309 137.392 104.093 137.624 105.293 137.624C106.461 137.624 107.229 137.392 107.597 136.928C107.981 136.448 108.173 135.48 108.173 134.024C108.173 132.536 107.989 131.56 107.621 131.096C107.269 130.632 106.493 130.4 105.293 130.4C104.109 130.4 103.325 130.64 102.941 131.12C102.573 131.6 102.389 132.568 102.389 134.024ZM115.877 140H113.093V128.144H115.493L115.613 129.344H115.685C116.245 128.848 116.845 128.488 117.485 128.264C118.141 128.024 118.909 127.904 119.789 127.904C121.101 127.904 122.101 128.232 122.789 128.888C123.477 129.544 123.821 130.512 123.821 131.792V140H121.037V132.152C121.037 131.576 120.845 131.144 120.461 130.856C120.093 130.552 119.541 130.4 118.805 130.4C118.277 130.4 117.765 130.472 117.269 130.616C116.773 130.744 116.309 130.944 115.877 131.216V140ZM133.658 137.408V139.784C133.386 139.896 133.002 139.992 132.506 140.072C132.026 140.168 131.586 140.216 131.186 140.216C129.666 140.216 128.578 139.888 127.922 139.232C127.266 138.56 126.938 137.448 126.938 135.896V130.472H125.354V128.144H127.01L127.394 125.312H129.722V128.144H133.514V130.472H129.722V135.8C129.722 136.504 129.874 136.984 130.178 137.24C130.482 137.496 131.026 137.624 131.81 137.624C132.082 137.624 132.402 137.608 132.77 137.576C133.138 137.528 133.434 137.472 133.658 137.408ZM138.049 140.216C136.833 140.216 135.937 139.92 135.361 139.328C134.801 138.72 134.521 137.776 134.521 136.496C134.521 135.184 134.857 134.256 135.529 133.712C136.217 133.168 137.393 132.896 139.057 132.896C139.521 132.896 139.993 132.92 140.473 132.968C140.953 133.016 141.369 133.08 141.721 133.16V132.152C141.721 131.528 141.529 131.072 141.145 130.784C140.761 130.496 140.153 130.352 139.321 130.352C138.569 130.352 137.897 130.376 137.305 130.424C136.729 130.472 136.177 130.552 135.649 130.664V128.336C136.257 128.192 136.913 128.088 137.617 128.024C138.337 127.944 139.185 127.904 140.161 127.904C141.617 127.904 142.705 128.24 143.425 128.912C144.145 129.568 144.505 130.56 144.505 131.888V140H141.937L141.817 138.944H141.769C141.257 139.328 140.665 139.64 139.993 139.88C139.337 140.104 138.689 140.216 138.049 140.216ZM139.393 134.888C138.529 134.888 137.937 134.992 137.617 135.2C137.297 135.392 137.137 135.768 137.137 136.328C137.137 136.872 137.265 137.264 137.521 137.504C137.793 137.728 138.249 137.84 138.889 137.84C139.353 137.84 139.841 137.776 140.353 137.648C140.881 137.504 141.337 137.328 141.721 137.12V135.08C141.337 135.016 140.953 134.968 140.569 134.936C140.201 134.904 139.809 134.888 139.393 134.888ZM155.622 137V139.328C155.206 139.568 154.582 139.776 153.75 139.952C152.934 140.128 152.086 140.216 151.206 140.216C149.51 140.216 148.318 139.76 147.63 138.848C146.942 137.936 146.598 136.336 146.598 134.048C146.598 131.792 147.038 130.208 147.918 129.296C148.814 128.368 150.35 127.904 152.526 127.904C153.054 127.904 153.526 127.92 153.942 127.952C154.374 127.968 154.83 128.008 155.31 128.072V130.544C154.686 130.496 154.142 130.464 153.678 130.448C153.214 130.416 152.83 130.4 152.526 130.4C151.214 130.4 150.358 130.632 149.958 131.096C149.574 131.56 149.382 132.544 149.382 134.048C149.382 135.504 149.534 136.464 149.838 136.928C150.158 137.392 150.814 137.624 151.806 137.624C152.462 137.624 153.134 137.568 153.822 137.456C154.526 137.328 155.126 137.176 155.622 137ZM164.877 137.408V139.784C164.605 139.896 164.221 139.992 163.725 140.072C163.245 140.168 162.805 140.216 162.405 140.216C160.885 140.216 159.797 139.888 159.141 139.232C158.485 138.56 158.157 137.448 158.157 135.896V130.472H156.573V128.144H158.229L158.613 125.312H160.941V128.144H164.733V130.472H160.941V135.8C160.941 136.504 161.093 136.984 161.397 137.24C161.701 137.496 162.245 137.624 163.029 137.624C163.301 137.624 163.621 137.608 163.989 137.576C164.357 137.528 164.653 137.472 164.877 137.408ZM185.088 124.952V140H182.376V129.56L178.944 137.048H176.568L173.16 129.536V140H170.448V124.952H174L177.816 133.52L181.656 124.952H185.088ZM197.219 137.096V139.352C196.819 139.592 196.187 139.8 195.323 139.976C194.475 140.136 193.587 140.216 192.659 140.216C190.771 140.216 189.411 139.736 188.579 138.776C187.763 137.816 187.355 136.232 187.355 134.024C187.355 131.896 187.787 130.344 188.651 129.368C189.515 128.392 190.883 127.904 192.755 127.904C194.563 127.904 195.843 128.28 196.595 129.032C197.347 129.784 197.723 131.072 197.723 132.896C197.723 133.232 197.715 133.544 197.699 133.832C197.683 134.104 197.651 134.488 197.603 134.984H190.163C190.179 135.976 190.395 136.672 190.811 137.072C191.243 137.472 192.003 137.672 193.091 137.672C193.811 137.672 194.555 137.616 195.323 137.504C196.091 137.392 196.723 137.256 197.219 137.096ZM192.755 130.328C191.779 130.328 191.099 130.52 190.715 130.904C190.347 131.288 190.163 131.984 190.163 132.992H195.179V132.488C195.163 131.672 194.979 131.112 194.627 130.808C194.275 130.488 193.651 130.328 192.755 130.328Z" fill="white"/>
</svg>
