<svg width="18" height="19" viewBox="0 0 18 19" fill="none" xmlns="http://www.w3.org/2000/svg">
<path fill-rule="evenodd" clip-rule="evenodd" d="M5.37101 0.8025C6.30966 0.759545 6.60895 0.75 9 0.75C11.391 0.75 11.6903 0.760341 12.6282 0.8025C13.566 0.844659 14.2062 0.993409 14.7664 1.20898C15.3529 1.42932 15.8851 1.77375 16.3252 2.2192C16.7733 2.65591 17.119 3.18409 17.3399 3.76795C17.5575 4.32477 17.7064 4.96114 17.7496 5.89182C17.7928 6.82648 17.8024 7.12398 17.8024 9.5C17.8024 11.8768 17.792 12.1743 17.7496 13.1074C17.7072 14.0381 17.5575 14.6744 17.3399 15.2313C17.119 15.8152 16.7727 16.3442 16.3252 16.7816C15.8851 17.227 15.3529 17.5707 14.7664 17.7902C14.2062 18.0066 13.566 18.1545 12.6298 18.1975C11.6903 18.2405 11.391 18.25 9 18.25C6.60895 18.25 6.30966 18.2397 5.37101 18.1975C4.43475 18.1553 3.79458 18.0066 3.23443 17.7902C2.647 17.5707 2.11478 17.2265 1.6748 16.7816C1.22699 16.3446 0.880439 15.8158 0.659327 15.232C0.442468 14.6752 0.293627 14.0389 0.250416 13.1082C0.207204 12.1735 0.197601 11.876 0.197601 9.5C0.197601 7.12318 0.208004 6.82568 0.250416 5.89341C0.292827 4.96114 0.442468 4.32477 0.659327 3.76795C0.880765 3.18416 1.22758 2.65536 1.6756 2.21841C2.11496 1.77335 2.64665 1.42888 3.23363 1.20898C3.79378 0.993409 4.43395 0.845455 5.37021 0.8025H5.37101ZM12.557 2.3775C11.6287 2.33534 11.3502 2.32659 9 2.32659C6.64976 2.32659 6.37128 2.33534 5.44303 2.3775C4.58439 2.41648 4.11867 2.55886 3.80818 2.67898C3.39767 2.83807 3.10399 3.02659 2.79591 3.33284C2.50386 3.61527 2.27911 3.95909 2.13813 4.33909C2.0173 4.64773 1.87406 5.11068 1.83485 5.9642C1.79244 6.88693 1.78363 7.16375 1.78363 9.5C1.78363 11.8363 1.79244 12.1131 1.83485 13.0358C1.87406 13.8893 2.0173 14.3523 2.13813 14.6609C2.27897 15.0403 2.50383 15.3848 2.79591 15.6672C3.07999 15.9575 3.42648 16.181 3.80818 16.321C4.11867 16.4411 4.58439 16.5835 5.44303 16.6225C6.37128 16.6647 6.64896 16.6734 9 16.6734C11.351 16.6734 11.6287 16.6647 12.557 16.6225C13.4156 16.5835 13.8813 16.4411 14.1918 16.321C14.6023 16.1619 14.896 15.9734 15.2041 15.6672C15.4962 15.3848 15.721 15.0403 15.8619 14.6609C15.9827 14.3523 16.1259 13.8893 16.1651 13.0358C16.2076 12.1131 16.2164 11.8363 16.2164 9.5C16.2164 7.16375 16.2076 6.88693 16.1651 5.9642C16.1259 5.11068 15.9827 4.64773 15.8619 4.33909C15.7018 3.93102 15.5122 3.63909 15.2041 3.33284C14.9199 3.04256 14.5741 2.81914 14.1918 2.67898C13.8813 2.55886 13.4156 2.41648 12.557 2.3775V2.3775ZM7.87569 12.1974C8.50359 12.4572 9.20275 12.4923 9.85377 12.2966C10.5048 12.1009 11.0673 11.6866 11.4451 11.1245C11.823 10.5624 11.9929 9.88728 11.9256 9.21452C11.8584 8.54175 11.5583 7.91305 11.0766 7.4358C10.7695 7.13072 10.3981 6.89712 9.98933 6.75182C9.58052 6.60652 9.14438 6.55313 8.71231 6.59549C8.28025 6.63785 7.86301 6.77491 7.49063 6.99681C7.11825 7.2187 6.79999 7.51991 6.55877 7.87875C6.31756 8.23758 6.15937 8.64512 6.09562 9.07201C6.03186 9.49891 6.06412 9.93455 6.19006 10.3476C6.31601 10.7606 6.53251 11.1407 6.82398 11.4606C7.11545 11.7804 7.47464 12.0321 7.87569 12.1974ZM5.80073 6.31977C6.22086 5.90214 6.71963 5.57085 7.26856 5.34483C7.81749 5.11881 8.40584 5.00248 9 5.00248C9.59416 5.00248 10.1825 5.11881 10.7314 5.34483C11.2804 5.57085 11.7791 5.90214 12.1993 6.31977C12.6194 6.73741 12.9527 7.23321 13.18 7.77887C13.4074 8.32454 13.5244 8.90938 13.5244 9.5C13.5244 10.0906 13.4074 10.6755 13.18 11.2211C12.9527 11.7668 12.6194 12.2626 12.1993 12.6802C11.3508 13.5237 10.2 13.9975 9 13.9975C7.80004 13.9975 6.64922 13.5237 5.80073 12.6802C4.95223 11.8368 4.47554 10.6928 4.47554 9.5C4.47554 8.30718 4.95223 7.16322 5.80073 6.31977V6.31977ZM14.5279 5.67227C14.632 5.57465 14.7154 5.45725 14.773 5.32702C14.8307 5.1968 14.8614 5.05641 14.8635 4.91415C14.8656 4.77189 14.839 4.63066 14.7852 4.49883C14.7313 4.36699 14.6515 4.24722 14.5503 4.14662C14.4491 4.04602 14.3286 3.96663 14.196 3.91314C14.0633 3.85965 13.9213 3.83316 13.7782 3.83524C13.635 3.83731 13.4938 3.86791 13.3628 3.92521C13.2318 3.98252 13.1137 4.06537 13.0155 4.16886C12.8245 4.37014 12.7199 4.63748 12.724 4.91415C12.728 5.19081 12.8404 5.45502 13.0372 5.65067C13.234 5.84632 13.4998 5.95802 13.7782 5.96206C14.0565 5.96609 14.3254 5.86214 14.5279 5.67227V5.67227Z" fill="#414141"/>
</svg>
