<svg width="22" height="19" viewBox="0 0 22 19" fill="none" xmlns="http://www.w3.org/2000/svg">
<path d="M21.8465 2.881C21.053 3.23075 20.2004 3.46713 19.3055 3.57346C20.219 3.02921 20.9204 2.16735 21.2507 1.14046C20.3823 1.65272 19.4322 2.01364 18.4414 2.20763C17.6344 1.35297 16.4847 0.818848 15.2122 0.818848C12.7689 0.818848 10.788 2.78789 10.788 5.21645C10.788 5.56118 10.8271 5.89678 10.9025 6.21873C7.22574 6.03527 3.96591 4.28452 1.78384 1.62385C1.4031 2.27336 1.18494 3.02887 1.18494 3.83471C1.18494 5.36047 1.96604 6.70647 3.15305 7.49514C2.4505 7.47327 1.76341 7.28465 1.14914 6.94502C1.14889 6.96344 1.14889 6.98186 1.14889 7.00037C1.14889 9.1311 2.67385 10.9086 4.69764 11.3126C4.04617 11.4887 3.36282 11.5145 2.69979 11.3879C3.26273 13.1351 4.8966 14.4065 6.83246 14.4421C5.31836 15.6215 3.41072 16.3246 1.33808 16.3246C0.980926 16.3246 0.62883 16.3038 0.282715 16.2631C2.24055 17.5109 4.56599 18.239 7.06435 18.239C15.2019 18.239 19.6517 11.5378 19.6517 5.72647C19.6517 5.53573 19.6475 5.34607 19.6389 5.15751C20.505 4.53511 21.2526 3.76422 21.8465 2.881Z" fill="#414141"/>
</svg>
