<svg width="27" height="27" viewBox="0 0 27 27" fill="none" xmlns="http://www.w3.org/2000/svg">
<path d="M1.33333 13.25L0.271667 13.0377C0.257473 13.1076 0.250215 13.1787 0.25 13.25H1.33333ZM25.1667 13.25H26.25C26.2498 13.1787 26.2425 13.1076 26.2283 13.0377L25.1667 13.25ZM19.2083 13.25V12.1667C18.9729 12.1665 18.7438 12.2431 18.5557 12.3848C18.3677 12.5266 18.2309 12.7257 18.1662 12.9521L19.2083 13.25ZM7.29167 13.25L8.33275 12.9521C8.26805 12.7259 8.13146 12.5269 7.94363 12.3852C7.7558 12.2435 7.52695 12.1668 7.29167 12.1667V13.25ZM25.145 7.621C25.0805 7.34765 24.9123 7.11004 24.676 6.95829C24.4396 6.80654 24.1536 6.75251 23.8782 6.80759C23.6028 6.86267 23.3595 7.02256 23.1997 7.25354C23.0399 7.48452 22.9761 7.76853 23.0217 8.04567L25.145 7.621ZM0.25 17.0417C0.25 17.329 0.364137 17.6045 0.567301 17.8077C0.770466 18.0109 1.04602 18.125 1.33333 18.125C1.62065 18.125 1.8962 18.0109 2.09937 17.8077C2.30253 17.6045 2.41667 17.329 2.41667 17.0417H0.25ZM3.47833 8.04567C3.52391 7.76853 3.46006 7.48452 3.30027 7.25354C3.14048 7.02256 2.89722 6.86267 2.62182 6.80759C2.34641 6.75251 2.06037 6.80654 1.82403 6.95829C1.58769 7.11004 1.41953 7.34765 1.355 7.621L3.47833 8.04567ZM10.5417 4.58333C10.2543 4.58333 9.9788 4.69747 9.77563 4.90063C9.57247 5.1038 9.45833 5.37935 9.45833 5.66667C9.45833 5.95398 9.57247 6.22953 9.77563 6.4327C9.9788 6.63586 10.2543 6.75 10.5417 6.75V4.58333ZM15.9583 6.75C16.2457 6.75 16.5212 6.63586 16.7244 6.4327C16.9275 6.22953 17.0417 5.95398 17.0417 5.66667C17.0417 5.37935 16.9275 5.1038 16.7244 4.90063C16.5212 4.69747 16.2457 4.58333 15.9583 4.58333V6.75ZM10.5417 8.91667C10.2543 8.91667 9.9788 9.0308 9.77563 9.23397C9.57247 9.43713 9.45833 9.71268 9.45833 10C9.45833 10.2873 9.57247 10.5629 9.77563 10.766C9.9788 10.9692 10.2543 11.0833 10.5417 11.0833V8.91667ZM15.9583 11.0833C16.2457 11.0833 16.5212 10.9692 16.7244 10.766C16.9275 10.5629 17.0417 10.2873 17.0417 10C17.0417 9.71268 16.9275 9.43713 16.7244 9.23397C16.5212 9.0308 16.2457 8.91667 15.9583 8.91667V11.0833ZM5.125 10C5.125 10.2873 5.23914 10.5629 5.4423 10.766C5.64547 10.9692 5.92102 11.0833 6.20833 11.0833C6.49565 11.0833 6.7712 10.9692 6.97437 10.766C7.17753 10.5629 7.29167 10.2873 7.29167 10H5.125ZM6.20833 1.33333V0.25C5.92102 0.25 5.64547 0.364137 5.4423 0.567301C5.23914 0.770466 5.125 1.04602 5.125 1.33333H6.20833ZM20.2917 1.33333H21.375C21.375 1.04602 21.2609 0.770466 21.0577 0.567301C20.8545 0.364137 20.579 0.25 20.2917 0.25V1.33333ZM19.2083 10C19.2083 10.2873 19.3225 10.5629 19.5256 10.766C19.7288 10.9692 20.0043 11.0833 20.2917 11.0833C20.579 11.0833 20.8545 10.9692 21.0577 10.766C21.2609 10.5629 21.375 10.2873 21.375 10H19.2083ZM25.1667 13.25H24.0833V21.9167H26.25V13.2511L25.1667 13.25ZM24.0833 21.9167C24.0833 22.3771 23.8418 22.9274 23.3846 23.3846C22.9274 23.8418 22.3771 24.0833 21.9167 24.0833V26.25C23.0813 26.25 24.1559 25.6791 24.9175 24.9175C25.6791 24.1559 26.25 23.0813 26.25 21.9167H24.0833ZM4.58333 24.0833C4.12292 24.0833 3.57258 23.8418 3.11542 23.3846C2.65717 22.9274 2.41667 22.3771 2.41667 21.9167H0.25C0.25 23.0813 0.822 24.1559 1.5825 24.9175C2.34408 25.6791 3.41875 26.25 4.58333 26.25V24.0833ZM2.41667 21.9167V13.25H0.25V21.9167H2.41667ZM13.25 18.125C16.0093 18.125 17.7805 17.0363 18.8508 15.8825C19.3752 15.3192 19.7175 14.7548 19.932 14.3268C20.0525 14.0849 20.1556 13.8348 20.2407 13.5782C20.2434 13.57 20.2459 13.5617 20.2483 13.5533V13.5501L20.2494 13.549L19.2083 13.25C18.8607 13.1523 18.5137 13.0527 18.1672 12.951V12.9478L18.1683 12.9456V12.9434L18.1662 12.9543C18.1172 13.092 18.0596 13.2266 17.9939 13.3573C17.8531 13.6411 17.6191 14.0246 17.2638 14.4081C16.5737 15.1513 15.3658 15.9583 13.25 15.9583V18.125ZM19.2083 14.3333H25.1667V12.1667H19.2083V14.3333ZM1.33333 14.3333H7.29167V12.1667H1.33333V14.3333ZM7.29167 13.25C6.944 13.3474 6.59697 13.4471 6.25058 13.549V13.5533L6.25383 13.5598C6.26053 13.5838 6.26776 13.6077 6.2755 13.6313C6.28958 13.6725 6.308 13.7288 6.334 13.796C6.38492 13.9303 6.46075 14.1123 6.568 14.3268C6.85308 14.8939 7.21709 15.4176 7.64917 15.8825C8.7195 17.0363 10.4908 18.125 13.25 18.125V15.9583C11.1343 15.9583 9.92633 15.1512 9.23625 14.4092C8.94453 14.0951 8.69871 13.7413 8.50608 13.3583C8.43881 13.2239 8.38019 13.0853 8.33058 12.9434V12.9456L8.33167 12.9478V12.9499L8.33275 12.951L7.29167 13.25ZM21.9167 24.0833H4.58333V26.25H21.9167V24.0833ZM23.0217 8.04567L24.105 13.4623L26.2283 13.0377L25.145 7.621L23.0217 8.04567ZM0.25 13.25V17.0417H2.41667V13.25H0.25ZM1.355 7.621L0.271667 13.0377L2.395 13.4623L3.47833 8.04567L1.355 7.621ZM10.5417 6.75H15.9583V4.58333H10.5417V6.75ZM10.5417 11.0833H15.9583V8.91667H10.5417V11.0833ZM7.29167 10V1.33333H5.125V10H7.29167ZM6.20833 2.41667H20.2917V0.25H6.20833V2.41667ZM19.2083 1.33333V10H21.375V1.33333H19.2083Z" fill="white"/>
</svg>
